<svg width="150" height="19" viewBox="0 0 150 19" fill="none" xmlns="http://www.w3.org/2000/svg">
<path d="M13.15 5.875C13.15 2.85 10.725 0.499998 7.7 0.499998H0.224998V18H8.425C12 18 13.85 15.525 13.875 12.475C13.875 10.925 13.2 9.625 11.775 8.9C12.625 8.2 13.15 6.925 13.15 5.875ZM8.1 11.05C9.9 11.05 9.925 14.025 8.125 14.025H4.55V11.05H8.1ZM7.35 4.5C9.15 4.5 9.15 7.325 7.375 7.325H4.55V4.5H7.35Z" fill="black"/>
<path d="M27.8137 9.4V18C29.3637 18 30.9137 18 32.4387 18V0.424999H30.8137L21.9637 9.075V0.499998C20.4387 0.499998 18.9137 0.499998 17.3887 0.499998V18.025H18.9887L27.8137 9.4Z" fill="black"/>
<path d="M48.0443 18H52.4193V17.35L44.5193 0.274998H42.5943L34.7193 17.35V18H39.0943L40.1193 15.8H47.0193L48.0443 18ZM45.5693 11.975H41.5693L43.5443 7.375L45.5693 11.975Z" fill="black"/>
<path d="M59.1922 18V13.525H62.4172C70.7922 13.525 70.7922 0.524998 62.4172 0.499998C59.8422 0.499998 57.2422 0.499998 54.7172 0.499998C54.7172 6.35 54.7172 12.175 54.7172 18C56.1922 18 57.6922 18 59.1922 18ZM62.3922 9.5H59.1922C59.1922 8.075 59.1922 5.925 59.1922 4.5C60.2172 4.5 61.3422 4.475 62.3922 4.5C64.9922 4.525 64.8422 9.5 62.3922 9.5Z" fill="black"/>
<path d="M73.1506 18H77.9756L86.2756 1.175V0.499998H81.4256L78.4256 6.95H78.3006L75.0006 0.499998H70.0006V1.175L75.9006 11.875L73.1506 17.525V18Z" fill="black"/>
<path d="M88.7266 18H110.902V0.499998H106.327V13.875H102.102V0.499998H97.5266V13.875H93.3016V0.499998H88.7266V18Z" fill="black"/>
<path d="M119.937 18V11.325C120.512 11.325 121.062 11.325 121.662 11.225L125.512 18H130.487V17.3L125.737 9.6C129.212 7.375 129.112 4.075 129.112 0.499998C127.562 0.499998 126.037 0.499998 124.512 0.499998C124.512 3.775 124.737 7.125 120.262 7.125H119.937V0.499998C118.387 0.499998 116.887 0.499998 115.387 0.499998V18C116.887 18 118.387 18 119.937 18Z" fill="black"/>
<path d="M145.237 18H149.612V17.35L141.712 0.274998H139.787L131.912 17.35V18H136.287L137.312 15.8H144.212L145.237 18ZM142.762 11.975H138.762L140.737 7.375L142.762 11.975Z" fill="black"/>
</svg>
